<?xml version="1.0" encoding="utf-8"?>
<!-- Generator: Adobe Illustrator 19.2.0, SVG Export Plug-In . SVG Version: 6.00 Build 0)  -->
<svg version="1.0" id="Layer_1" xmlns="http://www.w3.org/2000/svg" xmlns:xlink="http://www.w3.org/1999/xlink" x="0px" y="0px"
	 viewBox="0 0 180.1 171.2" style="enable-background:new 0 0 180.1 171.2;" xml:space="preserve">
<style type="text/css">
	.st0{fill:#461F59;}
</style>
<path class="st0" d="M64.5,64c-19,0-36.7,10.2-46.1,26.7l3.7,2.1c8.7-15.2,25-24.6,42.5-24.6c27,0,49,22,49,49s-22,49-49,49
	s-49-22-49-49V8.1l8.3,8.3l3-3L13.4,0L0,13.4l3,3l8.3-8.3v109c0,29.3,23.9,53.2,53.2,53.2s53.2-23.9,53.2-53.2S93.8,64,64.5,64z"/>
<path class="st0" d="M177.1,154.8l-8.3,8.3V16.1V3h-4.2v13.1c0,27-22,49-49,49s-49-22-49-49V3h-4.2v13.1c0,29.3,23.9,53.2,53.2,53.2
	c22,0,40.8-13.4,49-32.4v126.3l-8.3-8.3l-3,3l13.4,13.4l13.4-13.4L177.1,154.8z"/>
</svg>
